# xmcd CD database file
#
# Track frame offsets:
#	150
#	17656
#	29326
#	42919
#	55748
#	67725
#	77398
#	95004
#	101759
#	113016
#	124184
#	146843
#	156804
#	171095
#	180614
#	189612
#	198265
#	212347
#	223384
#
# Disc length: 3130 seconds
#
# Revision: 0
# Processed by: cddbd v1.5.2PL0 Copyright (c) Steve Scherf et al.
# Submitted via: CDex 1.70beta2
#
DISCID=060c3813
DTITLE=Pouličníci - Takovýho frajera...
DYEAR=1900
DGENRE=Country
TTITLE0=Kde je moje máma
TTITLE1=Ku Praze uhání vlak
TTITLE2=V Brně U Modrý nudle
TTITLE3=Malíř
TTITLE4=Tydlidát
TTITLE5=Pan Johanes
TTITLE6=Cvočkář Danda
TTITLE7=Jde se do toho
TTITLE8=Emanuel Přibyl
TTITLE9=Pokrok
TTITLE10=Zema je zimoucí
TTITLE11=Pan Drašner
TTITLE12=Chytila patrola
TTITLE13=Já jsem čilý pražský hoch
TTITLE14=Fidlovačka
TTITLE15=Karlínská frajerka
TTITLE16=Asanace
TTITLE17=Holka neznámá
TTITLE18=U direkce praskla puma
EXTD=
EXTT0=
EXTT1=
EXTT2=
EXTT3=
EXTT4=
EXTT5=
EXTT6=
EXTT7=
EXTT8=
EXTT9=
EXTT10=
EXTT11=
EXTT12=
EXTT13=
EXTT14=
EXTT15=
EXTT16=
EXTT17=
EXTT18=
PLAYORDER=
